<svg viewBox="0 0 32 32" fill="none" xmlns="http://www.w3.org/2000/svg"><path d="M16 0C7.16344 0 0 7.16344 0 16C0 24.8366 7.16344 32 16 32C24.8366 32 32 24.8366 32 16C32 7.16344 24.8366 0 16 0ZM24 16C24 20.4183 20.4183 24 16 24C11.5817 24 8 20.4183 8 16C8 11.5817 11.5817 8 16 8C20.4183 8 24 11.5817 24 16Z" fill="currentColor"/><path d="M16 5.33333C9.99594 5.33333 5.33333 9.99594 5.33333 16C5.33333 22.0041 9.99594 26.6667 16 26.6667C22.0041 26.6667 26.6667 22.0041 26.6667 16C26.6667 9.99594 22.0041 5.33333 16 5.33333ZM16 24C11.5817 24 8 20.4183 8 16C8 11.5817 11.5817 8 16 8C20.4183 8 24 11.5817 24 16C24 20.4183 20.4183 24 16 24Z" fill="currentColor"/></svg>